<?xml version="1.0" encoding="UTF-8"?>
<svg xmlns="http://www.w3.org/2000/svg" xmlns:xlink="http://www.w3.org/1999/xlink" width="15pt" height="15pt" viewBox="0 0 15 15" version="1.1">
<g id="surface1">
<path style=" stroke:none;fill-rule:nonzero;fill:rgb(0%,0%,0%);fill-opacity:1;" d="M 0.664062 0.0117188 C 0.585938 0.0273438 0.519531 0.0507812 0.441406 0.09375 C 0.21875 0.207031 0.0585938 0.421875 0.0117188 0.667969 C 0.00390625 0.722656 0 1.402344 0 7.5 C 0 13.320312 0.00390625 14.28125 0.0117188 14.328125 C 0.0703125 14.640625 0.296875 14.882812 0.609375 14.976562 L 0.679688 14.996094 L 8.011719 15 L 8.011719 9.195312 L 6.058594 9.191406 L 6.054688 8.058594 L 6.050781 6.929688 L 8.011719 6.929688 L 8.011719 5.953125 C 8.015625 4.945312 8.015625 4.929688 8.050781 4.691406 C 8.128906 4.113281 8.320312 3.636719 8.636719 3.234375 C 8.71875 3.136719 8.894531 2.957031 8.992188 2.878906 C 9.421875 2.535156 9.925781 2.34375 10.570312 2.277344 C 10.777344 2.257812 11.371094 2.261719 11.890625 2.292969 C 12.207031 2.308594 12.5625 2.335938 12.652344 2.351562 L 12.675781 2.355469 L 12.675781 4.378906 L 11.976562 4.382812 C 11.226562 4.382812 11.199219 4.386719 11.027344 4.425781 C 10.648438 4.515625 10.445312 4.730469 10.378906 5.113281 C 10.355469 5.269531 10.347656 5.417969 10.351562 6.1875 L 10.355469 6.925781 L 11.472656 6.929688 L 12.59375 6.929688 L 12.589844 6.957031 C 12.585938 6.976562 12.523438 7.472656 12.445312 8.066406 C 12.371094 8.660156 12.308594 9.15625 12.300781 9.167969 L 12.300781 9.195312 L 10.347656 9.195312 L 10.347656 15 L 14.320312 14.996094 L 14.390625 14.976562 C 14.679688 14.890625 14.890625 14.679688 14.976562 14.390625 L 14.996094 14.320312 L 14.996094 7.535156 C 15 2.40625 14.996094 0.734375 14.992188 0.691406 C 14.953125 0.441406 14.792969 0.21875 14.566406 0.09375 C 14.496094 0.0546875 14.410156 0.0273438 14.332031 0.0117188 C 14.277344 0.00390625 13.621094 0 7.492188 0 C 1.796875 0.00390625 0.707031 0.00390625 0.664062 0.0117188 Z M 0.664062 0.0117188 "/>
</g>
</svg>
