<?xml version="1.0" standalone="no"?>
<!DOCTYPE svg PUBLIC "-//W3C//DTD SVG 20010904//EN"
 "http://www.w3.org/TR/2001/REC-SVG-20010904/DTD/svg10.dtd">
<svg version="1.0" xmlns="http://www.w3.org/2000/svg"
 width="2000.000000pt" height="2000.000000pt" viewBox="0 0 2000.000000 2000.000000"
 preserveAspectRatio="xMidYMid meet">
<metadata>
Created by potrace 1.15, written by Peter Selinger 2001-2017
</metadata>
<g transform="translate(0.000000,2000.000000) scale(0.100000,-0.100000)"
fill="#000000" stroke="none">
<path d="M886 19984 c-105 -20 -192 -52 -298 -107 -296 -153 -510 -440 -572
-767 -14 -74 -16 -979 -16 -9110 0 -7760 2 -9039 14 -9102 80 -417 380 -742
797 -865 l94 -28 4888 -3 4887 -2 0 3870 0 3870 -1302 2 -1303 3 -3 1508 -2
1507 1304 0 1305 0 4 1303 c4 1343 5 1365 48 1682 105 772 363 1409 785 1940
107 134 345 373 474 476 576 460 1243 714 2100 800 281 28 1070 21 1765 -16
421 -23 894 -60 1013 -80 l32 -6 0 -1349 0 -1349 -932 -4 c-999 -4 -1038 -6
-1263 -59 -509 -118 -778 -403 -866 -916 -35 -206 -40 -408 -37 -1432 l3 -985
1493 -3 1494 -2 -6 -38 c-3 -20 -89 -685 -191 -1477 -102 -792 -187 -1455
-190 -1472 l-6 -33 -1299 0 -1300 0 0 -3870 0 -3870 2648 2 2647 3 94 28 c385
113 665 393 778 778 l28 94 3 9050 c2 6836 0 9068 -9 9125 -51 329 -265 630
-564 791 -96 52 -212 94 -315 113 -74 14 -949 16 -9119 15 -7595 -1 -9047 -3
-9105 -15z"/>
</g>
</svg>
